# xmcd
#
# Track frame offsets: 
#        150
#        14774
#        23875
#        43164
#        61896
#        80709
#        104020
#        124300
#        135832
#        153199
#        165707
#        179816
#        197347
#        211857
#        223244
#        242560
#        255809
#        268546
#        291685
#        308678
#
# Disc length: 4291 seconds
#
# Revision: 0
# Processed by: cddbd v1.5.2PL0 Copyright (c) Steve Scherf et al.
# Submitted via: ExactAudioCopyFreeDBPlugin 1.0
#
DISCID=2610c114
DTITLE=Various Artist - Super Country CD1 
DYEAR=1900
DGENRE=Country
TTITLE0=Paul Anka - PAPA
TTITLE1=Glen Campbell - LET IT BE
TTITLE2=Lobo - HOW CAN I TELL HER
TTITLE3=Don McLean - AMERICAN PIE
TTITLE4=America - A HORSE WITH NO NAME 
TTITLE5=Simon and Garfunkel - BOXER
TTITLE6=James Taylor - YOU GOT A FRIEND
TTITLE7=Richard Johns - WHEN A CHILD IS BORN
TTITLE8=Kenny Rogers - I SWEAR
TTITLE9=Dr. Hook - ONLY SIXTEEN
TTITLE10=John Denver - ANNIE'S SONG
TTITLE11=Freddie  - CHILD
TTITLE12=Dan Fogelberg - LONGER
TTITLE13=James Darren - HELP ME MAKE IT THROUGH THE NIGHT
TTITLE14=Don McLean - AND I LOVE YOU SO
TTITLE15=C.C.R - COTTON FIELDS
TTITLE16=Johnny Horton - NORTH TO ALASKA
TTITLE17=Chicago - HARD TO SAY I'M SORRY
TTITLE18=Glen Campbell - BOTH SIDES NOW
TTITLE19=Marty Robbins - THE HANGING TREE
EXTD=
EXTT0=
EXTT1=
EXTT2=
EXTT3=
EXTT4=
EXTT5=
EXTT6=
EXTT7=
EXTT8=
EXTT9=
EXTT10=
EXTT11=
EXTT12=
EXTT13=
EXTT14=
EXTT15=
EXTT16=
EXTT17=
EXTT18=
EXTT19=
PLAYORDER=
